# xmcd CD database file
#
# Track frame offsets:
#	150
#	7947
#	25071
#	41305
#	55305
#	71334
#	87071
#	105253
#	121195
#	138266
#	160206
#	185680
#	209809
#	234009
#	252625
#	275786
#	299419
#
# Disc length: 4357 seconds
#
# Revision: 4
# Processed by: cddbd v1.4PL0 Copyright (c) Steve Scherf et al.
# Submitted via: CDex 1.51
#
DISCID=e8110311
DTITLE=Van Halen - Best Of Volume 1
DYEAR=1900
DGENRE=
TTITLE0=Track: 1
TTITLE1=Track: 2
TTITLE2=Track: 3
TTITLE3=Track: 4
TTITLE4=Track: 5
TTITLE5=Track: 6
TTITLE6=Track: 7
TTITLE7=Track: 8
TTITLE8=Track: 9
TTITLE9=Track: 10
TTITLE10=Track: 11
TTITLE11=Track: 12
TTITLE12=Track: 13
TTITLE13=Track: 14
TTITLE14=Track: 15
TTITLE15=Track: 16
TTITLE16=Track: 17
EXTD=
EXTT0=
EXTT1=
EXTT2=
EXTT3=
EXTT4=
EXTT5=
EXTT6=
EXTT7=
EXTT8=
EXTT9=
EXTT10=
EXTT11=
EXTT12=
EXTT13=
EXTT14=
EXTT15=
EXTT16=
PLAYORDER=
